<?xml version="1.0" encoding="utf-8"?><!-- Uploaded to: SVG Repo, www.svgrepo.com, Generator: SVG Repo Mixer Tools -->
<svg width="800px" height="800px" viewBox="0 0 64 64"
 xmlns="http://www.w3.org/2000/svg" stroke-width="3" stroke="white" fill="none"><circle cx="18.52" cy="12.94" r="5.91" stroke-linecap="round"/><path d="M12,55.89V43.29a2.19,2.19,0,0,0-.74-1.64l-2.18-2a1.06,1.06,0,0,1-.37-.82v-13a2.21,2.21,0,0,1,2.2-2.2H25a3.31,3.31,0,0,1,3.3,3.31v12a1.05,1.05,0,0,1-.3.75l-2.11,2.26a2.18,2.18,0,0,0-.6,1.51V55.89" stroke-linecap="round"/><path d="M38,57V46a1.15,1.15,0,0,0-1.15-1.15h-2.8A1.16,1.16,0,0,1,33,43.26l6.62-18a1.16,1.16,0,0,1,1.08-.76h7a1.16,1.16,0,0,1,1.09.77l6.47,18a1.16,1.16,0,0,1-1.09,1.55h-3A1.16,1.16,0,0,0,50,46V57" stroke-linecap="round"/><circle cx="44.1" cy="12.94" r="5.91" stroke-linecap="round"/></svg>